<svg width="25" height="30" viewBox="0 0 25 30" fill="none" xmlns="http://www.w3.org/2000/svg">
<path d="M1.66259 20.7331L0.648772 7.77384H24.3512L23.3374 20.7331C23.165 22.9365 23.0391 24.531 22.7838 25.7437C22.5321 26.9395 22.1695 27.6829 21.5776 28.2303C20.9858 28.7776 20.2164 29.0811 19.0046 29.2388C17.7757 29.3987 16.1762 29.3999 13.966 29.3999H11.034C8.82379 29.3999 7.22433 29.3987 5.99542 29.2388C4.78358 29.0811 4.01421 28.7776 3.42236 28.2303C2.8305 27.6829 2.46795 26.9395 2.2162 25.7437C1.9609 24.531 1.83497 22.9365 1.66259 20.7331Z" stroke="black" stroke-width="1.2"/>
<path d="M6.81836 11.087V6.53757C6.81836 4.49509 7.91464 2.60977 9.68977 1.59949V1.59949C11.4322 0.607841 13.5682 0.607841 15.3106 1.59949L15.3411 1.61685V1.61685C17.0974 2.6164 18.182 4.48169 18.182 6.50248V11.087" stroke="black" stroke-width="1.2"/>
</svg>
