<svg width="30" height="30" viewBox="0 0 30 30" fill="none" xmlns="http://www.w3.org/2000/svg">
<path d="M27.4664 24.4678H2.53311C2.07643 24.4673 1.6386 24.2856 1.31567 23.9627C0.99274 23.6398 0.811083 23.202 0.810547 22.7453V6.79296C0.811084 6.33631 0.992753 5.89852 1.31569 5.57566C1.63863 5.2528 2.07646 5.07123 2.53311 5.0708H27.4655C27.9223 5.07102 28.3604 5.25249 28.6835 5.57537C29.0066 5.89826 29.1884 6.33617 29.1889 6.79296V22.7453C29.1884 23.202 29.0067 23.6398 28.6838 23.9627C28.3609 24.2856 27.923 24.4673 27.4664 24.4678ZM2.53311 5.88161C2.29144 5.88183 2.05971 5.9779 1.88879 6.14875C1.71786 6.31961 1.62168 6.55129 1.62136 6.79296V22.7453C1.62168 22.987 1.71784 23.2187 1.88876 23.3896C2.05968 23.5605 2.2914 23.6567 2.53311 23.657H27.4655C27.7074 23.6569 27.9393 23.5608 28.1104 23.3899C28.2815 23.219 28.3778 22.9871 28.3781 22.7453V6.79296C28.3778 6.55129 28.2816 6.31961 28.1107 6.14875C27.9398 5.9779 27.708 5.88183 27.4664 5.88161H2.53311Z" fill="black"/>
<path d="M27.4664 24.4678H2.53311C2.07643 24.4673 1.6386 24.2856 1.31567 23.9627C0.99274 23.6398 0.811083 23.202 0.810547 22.7453V6.79296C0.811084 6.33631 0.992753 5.89852 1.31569 5.57566C1.63863 5.2528 2.07646 5.07123 2.53311 5.0708H27.4656C27.9223 5.07102 28.3604 5.25249 28.6835 5.57537C29.0066 5.89826 29.1884 6.33617 29.1889 6.79296V22.7453C29.1884 23.202 29.0067 23.6398 28.6838 23.9627C28.3609 24.2856 27.923 24.4673 27.4664 24.4678ZM2.53311 5.88161C2.29144 5.88183 2.05971 5.9779 1.88879 6.14875C1.71786 6.31961 1.62168 6.55129 1.62136 6.79296V22.7453C1.62168 22.987 1.71784 23.2187 1.88876 23.3896C2.05968 23.5605 2.2914 23.6567 2.53311 23.657H27.4656C27.7074 23.6569 27.9393 23.5608 28.1104 23.3899C28.2815 23.219 28.3778 22.9871 28.3781 22.7453V6.79296C28.3778 6.55129 28.2816 6.31961 28.1107 6.14875C27.9398 5.9779 27.708 5.88183 27.4664 5.88161H2.53311Z" fill="black"/>
<path d="M15.0001 15.8643C14.5954 15.8651 14.2014 15.7342 13.8776 15.4913L1.43121 6.12162C1.34519 6.05711 1.28832 5.96107 1.27312 5.85463C1.25791 5.74819 1.28561 5.64007 1.35013 5.55405C1.41464 5.46804 1.51068 5.41117 1.61712 5.39597C1.72356 5.38076 1.83168 5.40846 1.91769 5.47297L14.3636 14.8431C14.547 14.9801 14.7697 15.0541 14.9985 15.0541C15.2273 15.0541 15.4501 14.9801 15.6334 14.8431L28.0813 5.47297C28.1239 5.44103 28.1724 5.41779 28.224 5.40458C28.2755 5.39136 28.3292 5.38844 28.3819 5.39597C28.4346 5.4035 28.4853 5.42133 28.5311 5.44846C28.5769 5.47558 28.617 5.51146 28.6489 5.55405C28.6808 5.59665 28.7041 5.64511 28.7173 5.69668C28.7305 5.74826 28.7334 5.80193 28.7259 5.85463C28.7184 5.90733 28.7006 5.95804 28.6734 6.00385C28.6463 6.04966 28.6104 6.08968 28.5678 6.12162L16.1219 15.4917C15.7983 15.7343 15.4045 15.865 15.0001 15.8643Z" fill="black"/>
<path d="M1.49354 23.9566C1.41049 23.9567 1.32942 23.9312 1.26131 23.8837C1.1932 23.8362 1.14132 23.7689 1.11271 23.6909C1.0841 23.6129 1.08012 23.528 1.10132 23.4477C1.12252 23.3674 1.16787 23.2956 1.23124 23.2419L12.4123 13.7688C12.4944 13.6993 12.6007 13.6652 12.7078 13.674C12.815 13.6829 12.9142 13.734 12.9837 13.816C13.0533 13.898 13.0873 14.0043 13.0785 14.1115C13.0696 14.2187 13.0186 14.3179 12.9365 14.3874L1.75543 23.8605C1.68238 23.9228 1.5895 23.9568 1.49354 23.9566Z" fill="black"/>
<path d="M28.5067 23.9566C28.4108 23.9568 28.3179 23.9227 28.2448 23.8605L17.0637 14.3874C17.0231 14.353 16.9897 14.3109 16.9653 14.2636C16.941 14.2162 16.9262 14.1646 16.9218 14.1115C16.9174 14.0584 16.9235 14.005 16.9398 13.9543C16.956 13.9036 16.9821 13.8566 17.0165 13.816C17.0509 13.7754 17.093 13.7419 17.1404 13.7176C17.1877 13.6932 17.2394 13.6784 17.2924 13.674C17.3455 13.6697 17.3989 13.6758 17.4496 13.692C17.5003 13.7083 17.5473 13.7344 17.5879 13.7688L28.769 23.2419C28.8324 23.2956 28.8777 23.3674 28.8989 23.4477C28.9201 23.528 28.9162 23.6129 28.8876 23.6909C28.8589 23.7688 28.8071 23.8361 28.739 23.8837C28.6708 23.9312 28.5898 23.9567 28.5067 23.9566Z" fill="black"/>
</svg>
