<svg width="50" height="50" viewBox="0 0 50 50" fill="none" xmlns="http://www.w3.org/2000/svg">
<ellipse cx="25" cy="25" rx="20" ry="25" fill="#DDDDDD"/>
<rect y="35" width="50" height="15" rx="7.5" fill="#DDDDDD"/>
<path d="M48.1527 34.0599H46.1564C46.1564 34.0599 46.0818 34.0273 46.0818 34.0111V18.445C46.1191 8.27911 36.6975 0.0325309 25.0372 0H25.0185C13.3581 0 3.91789 8.27911 3.91789 18.445V34.0111C3.91789 34.0273 3.84326 34.0599 3.84326 34.0599H1.847C0.820891 34.0599 0 34.7918 0 35.6864V48.3084C0 49.203 0.820891 50 1.847 50H48.1527C49.1788 50 49.9997 49.203 49.9997 48.3084V35.6864C50.0184 34.8081 49.1788 34.0761 48.1527 34.0599ZM7.64921 34.0111V18.445C7.64921 10.0683 15.429 3.26936 25.0372 3.25309C34.608 3.26936 42.3691 10.0358 42.3505 18.3962C42.3505 18.4125 42.3505 18.4288 42.3505 18.4613V34.0273C42.3505 34.0436 42.4251 34.0761 42.4251 34.0761H7.57458C7.57458 34.0599 7.64921 34.0273 7.64921 34.0111ZM46.2684 46.7469H3.73132V37.3129H46.2684V46.7469Z" fill="black" fill-opacity="0.8"/>
</svg>
